<svg width="218" height="298" viewBox="0 0 218 298" fill="none" xmlns="http://www.w3.org/2000/svg">
<path fill-rule="evenodd" clip-rule="evenodd" d="M97.9688 42.0363C121.996 41.191 144.334 55.1989 158.9 75.6963C173.065 95.6307 177.084 121.427 171.714 145.814C166.395 169.964 151.732 190.259 131.162 201.647C109.809 213.469 84.1896 217.795 62.7591 206.135C41.7609 194.71 31.3145 169.936 27.2021 145.085C23.3659 121.903 28.8338 98.7755 41.8554 79.8138C55.6308 59.7543 74.7421 42.8534 97.9688 42.0363Z" fill="#F3B4D3"/>
<g clip-path="url(#clip0_3983_9985)">
<path d="M15.62 234.51C15.73 217.07 20.49 200.2 32.37 187.09C41.94 176.54 54.37 169.41 66.52 162.2C77.01 155.95 88.05 149.38 95.52 139.43C104.15 127.89 105.82 111.88 101.15 98.37C96.86 85.98 85.83 77.51 72.47 78.99C58.09 80.59 46.84 90.6 42.97 104.43C39.24 117.78 40.82 132.26 49.74 143.15C57.97 153.15 69.8 159.65 81.06 165.72C95.06 173.27 109.72 180.39 121.59 191.21C135.16 203.6 141.89 220 142.02 238.3C142.02 239.39 149.66 238.11 149.65 235.88C149.54 220.45 144.87 205.95 134.65 194.26C125.79 184.14 114.25 176.93 102.58 170.49C82.72 159.49 53.5 148.7 49.29 123.18C47.06 109.69 50.94 89.97 64.63 83.45C76.74 77.69 89.22 89.26 93.2 99.83C98.06 112.76 96.92 128.54 88.87 139.94C81.87 149.85 70.87 156.21 60.66 162.29C47.93 169.88 34.8 177.46 24.87 188.69C12.95 202.19 8.15999 219.15 8.04999 236.92C8.04999 237.98 15.66 236.75 15.67 234.51H15.62Z" fill="#30293D"/>
<path d="M203.15 90.73C202.7 105.56 186.88 111.73 174.28 113.21C160.2 114.88 143.61 112.52 132.38 103.21C123.45 95.78 120.61 83.72 129.2 74.76C139.66 63.87 159.2 63 173.04 65.66C185.66 68.09 202.7 75.78 203.15 90.76C203.2 92.4 210.21 89.43 210.15 87.47C209.65 71.05 191 63.02 177.15 60.87C160.23 58.25 141.29 61.61 127.63 72.39C116.37 81.27 112.77 95.39 124.14 106.02C137.01 118.02 157.66 120.1 174.23 116.92C188.58 114.16 209.68 104.64 210.23 87.47C210.2 85.92 203.21 88.71 203.15 90.73Z" fill="#30293D"/>
<path d="M140.36 133.52C140.36 133.81 136.19 134.79 135.51 134.89C133.185 135.276 130.806 135.201 128.51 134.67C126.63 134.22 120.11 131.67 121.13 128.73C122.15 125.79 131.59 126.96 133.49 127.48C136.75 128.36 140.02 130.4 140.38 134.02C140.52 135.4 142.99 132.71 143.16 132.51C144.16 131.35 145.34 129.51 145.16 127.95C144.39 120.24 133.29 119.09 127.48 120.76C122.15 122.29 116.02 127.76 116.13 133.76C116.26 141.42 127.62 142.76 133.13 141.38C139.06 139.91 144.52 134.72 145.13 128.43C145.3 126.68 143.45 128.26 142.97 128.72C141.614 130.004 140.701 131.684 140.36 133.52Z" fill="#30293D"/>
<path d="M75.39 121.92L77.66 130.27L78.82 123.67L72.82 126.1C71.05 126.82 71.15 134.47 72.71 133.84L78.71 131.41C80.27 130.77 80.21 126.04 79.88 124.8L77.61 116.45C77.23 115.07 76.54 114.95 75.92 116.29C75.1738 118.069 74.9855 120.032 75.38 121.92H75.39Z" fill="#30293D"/>
</g>
<defs>
<clipPath id="clip0_3983_9985">
<rect width="202.16" height="178.7" fill="white" transform="translate(8 60)"/>
</clipPath>
</defs>
</svg>
